<svg xmlns="http://www.w3.org/2000/svg" width="30" height="28" viewBox="0 0 30 28" fill="none">
  <path d="M21.75 1C23.851 1 25.5544 1.69304 26.9307 3.06934C28.307 4.44563 29 6.14899 29 8.25C29 9.28521 28.826 10.2982 28.4756 11.293C28.1318 12.2689 27.5095 13.3858 26.5723 14.6475C25.6358 15.9081 24.3592 17.3517 22.7305 18.9805C21.0973 20.6136 19.0242 22.5628 16.5078 24.8301L15 26.1807L13.4922 24.8301C10.9758 22.5628 8.90265 20.6136 7.26953 18.9805C5.6408 17.3517 4.36421 15.9081 3.42773 14.6475C2.49054 13.3858 1.86823 12.2689 1.52441 11.293C1.17397 10.2982 1 9.28521 1 8.25C1 6.14899 1.69304 4.44563 3.06934 3.06934C4.44563 1.69304 6.14899 1 8.25 1C9.40362 1 10.4962 1.24286 11.5381 1.73047C12.5817 2.21896 13.48 2.90579 14.2383 3.79785L15 4.69434L15.7617 3.79785C16.52 2.90579 17.4183 2.21896 18.4619 1.73047C19.5038 1.24286 20.5964 1 21.75 1Z" stroke-width="2"/>
</svg>