<svg width="28" height="28" viewBox="0 0 28 28" fill="none" xmlns="http://www.w3.org/2000/svg">
<path d="M4.97 21.875C6.44 20.8483 7.89833 20.0608 9.345 19.5125C10.7917 18.9642 12.3433 18.69 14 18.69C15.6567 18.69 17.2142 18.9642 18.6725 19.5125C20.1308 20.0608 21.595 20.8483 23.065 21.875C24.0917 20.615 24.8208 19.3433 25.2525 18.06C25.6842 16.7767 25.9 15.4233 25.9 14C25.9 10.6167 24.7625 7.7875 22.4875 5.5125C20.2125 3.2375 17.3833 2.1 14 2.1C10.6167 2.1 7.7875 3.2375 5.5125 5.5125C3.2375 7.7875 2.1 10.6167 2.1 14C2.1 15.4233 2.32167 16.7767 2.765 18.06C3.20833 19.3433 3.94333 20.615 4.97 21.875ZM13.9934 15.05C12.6445 15.05 11.5092 14.587 10.5875 13.6608C9.66583 12.735 9.205 11.5975 9.205 10.2484C9.205 8.89945 9.66805 7.76417 10.5942 6.8425C11.52 5.92083 12.6575 5.46 14.0066 5.46C15.3555 5.46 16.4908 5.92305 17.4125 6.84915C18.3342 7.77502 18.795 8.91252 18.795 10.2617C18.795 11.6105 18.3319 12.7458 17.4058 13.6675C16.48 14.5892 15.3425 15.05 13.9934 15.05ZM14.0164 28C12.0921 28 10.2783 27.6325 8.575 26.8975C6.87167 26.1625 5.38417 25.1592 4.1125 23.8875C2.84083 22.6158 1.8375 21.131 1.1025 19.4331C0.3675 17.7353 0 15.9212 0 13.9906C0 12.0602 0.3675 10.2492 1.1025 8.5575C1.8375 6.86583 2.84083 5.38417 4.1125 4.1125C5.38417 2.84083 6.86898 1.8375 8.56695 1.1025C10.2647 0.3675 12.0788 0 14.0094 0C15.9398 0 17.7508 0.3675 19.4425 1.1025C21.1342 1.8375 22.6158 2.84083 23.8875 4.1125C25.1592 5.38417 26.1625 6.86618 26.8975 8.55855C27.6325 10.2509 28 12.0592 28 13.9836C28 15.9079 27.6325 17.7217 26.8975 19.425C26.1625 21.1283 25.1592 22.6158 23.8875 23.8875C22.6158 25.1592 21.1338 26.1625 19.4414 26.8975C17.7491 27.6325 15.9408 28 14.0164 28ZM14 25.9C15.2833 25.9 16.5375 25.7133 17.7625 25.34C18.9875 24.9667 20.195 24.3133 21.385 23.38C20.195 22.54 18.9817 21.8983 17.745 21.455C16.5083 21.0117 15.26 20.79 14 20.79C12.74 20.79 11.4917 21.0117 10.255 21.455C9.01833 21.8983 7.805 22.54 6.615 23.38C7.805 24.3133 9.0125 24.9667 10.2375 25.34C11.4625 25.7133 12.7167 25.9 14 25.9ZM14 12.95C14.7933 12.95 15.4408 12.6992 15.9425 12.1975C16.4442 11.6958 16.695 11.0483 16.695 10.255C16.695 9.46167 16.4442 8.81417 15.9425 8.3125C15.4408 7.81083 14.7933 7.56 14 7.56C13.2067 7.56 12.5592 7.81083 12.0575 8.3125C11.5558 8.81417 11.305 9.46167 11.305 10.255C11.305 11.0483 11.5558 11.6958 12.0575 12.1975C12.5592 12.6992 13.2067 12.95 14 12.95Z" fill="#D9D9D9"/>
</svg>
